<?xml version="1.0" encoding="UTF-8" standalone="no"?>
<!DOCTYPE svg PUBLIC "-//W3C//DTD SVG 1.1//EN"
 "http://www.w3.org/Graphics/SVG/1.1/DTD/svg11.dtd">
<!-- Generated by graphviz version 2.38.0 (20140413.2041)
 -->
<!-- Title: %3 Pages: 1 -->
<svg width="723pt" height="445pt"
 viewBox="0.00 0.00 723.00 445.00" xmlns="http://www.w3.org/2000/svg" xmlns:xlink="http://www.w3.org/1999/xlink">
<g id="graph0" class="graph" transform="scale(1 1) rotate(0) translate(4 441)">
<title>%3</title>
<polygon fill="white" stroke="none" points="-4,4 -4,-441 719,-441 719,4 -4,4"/>
<text text-anchor="middle" x="50.5" y="-425" font-family="Lucida Console" font-size="10.00">Build pipeline</text>
<g id="clust2" class="cluster"><title>cluster_dist</title>
<polygon fill="none" stroke="black" stroke-dasharray="5,2" points="299,-117 299,-410 707,-410 707,-117 299,-117"/>
<text text-anchor="middle" x="322.5" y="-398" font-family="Lucida Console" font-size="10.00">dist/</text>
</g>
<g id="clust1" class="cluster"><title>cluster_src</title>
<polygon fill="none" stroke="black" stroke-dasharray="5,2" points="8,-193 8,-268 95,-268 95,-193 8,-193"/>
<text text-anchor="middle" x="28.5" y="-256" font-family="Lucida Console" font-size="10.00">src/</text>
</g>
<g id="clust3" class="cluster"><title>cluster_docs</title>
<polygon fill="none" stroke="black" stroke-dasharray="5,2" points="611,-16 611,-109 698,-109 698,-16 611,-16"/>
<text text-anchor="middle" x="634.5" y="-97" font-family="Lucida Console" font-size="10.00">docs/</text>
</g>
<g id="clust4" class="cluster"><title>cluster_tests</title>
<polygon fill="none" stroke="black" stroke-dasharray="5,2" points="218,-8 218,-81 461,-81 461,-8 218,-8"/>
<text text-anchor="middle" x="256.5" y="-69" font-family="Lucida Console" font-size="10.00">Unit tests</text>
</g>
<!-- src -->
<g id="node1" class="node"><title>src</title>
<polygon fill="none" stroke="black" points="16,-202 16,-240 87,-240 87,-202 16,-202"/>
<text text-anchor="middle" x="51.5" y="-228" font-family="Lucida Console" font-size="10.00">*.ts</text>
<polyline fill="none" stroke="black" points="16,-221 87,-221 "/>
<text text-anchor="middle" x="51.5" y="-209" font-family="Lucida Console" font-size="10.00">*.spec.ts</text>
</g>
<!-- out -->
<g id="node2" class="node"><title>out</title>
<polygon fill="none" stroke="black" points="312.5,-344 312.5,-382 366.5,-382 366.5,-344 312.5,-344"/>
<text text-anchor="middle" x="339.5" y="-370" font-family="Lucida Console" font-size="10.00">es5/</text>
<polyline fill="none" stroke="black" points="312.5,-363 366.5,-363 "/>
<text text-anchor="middle" x="339.5" y="-351" font-family="Lucida Console" font-size="10.00">es6/</text>
</g>
<!-- src&#45;&gt;out -->
<g id="edge2" class="edge"><title>src:ts&#45;&gt;out:es5</title>
<path fill="none" stroke="black" d="M88.5,-231C137.912,-231 102.14,-298.48 141,-329 199.782,-375.167 230.42,-373.284 301.234,-373.021"/>
<polygon fill="black" stroke="black" points="301.507,-376.521 311.5,-373 301.493,-369.521 301.507,-376.521"/>
<text text-anchor="middle" x="156.5" y="-353.8" font-family="Arial" font-size="9.00">tsc&#45;es5</text>
</g>
<!-- src&#45;&gt;out -->
<g id="edge3" class="edge"><title>src:ts&#45;&gt;out:es6</title>
<path fill="none" stroke="black" d="M88.5,-231C197.943,-231 198.597,-345.494 301.241,-352.65"/>
<polygon fill="black" stroke="black" points="301.386,-356.157 311.5,-353 301.625,-349.161 301.386,-356.157"/>
<text text-anchor="middle" x="156.5" y="-263.8" font-family="Arial" font-size="9.00">tsc&#45;es6</text>
</g>
<!-- typings -->
<g id="node4" class="node"><title>typings</title>
<polygon fill="none" stroke="black" points="307,-235 307,-271 372,-271 372,-235 307,-235"/>
<text text-anchor="middle" x="339.5" y="-250.5" font-family="Lucida Console" font-size="10.00">typings/</text>
</g>
<!-- src&#45;&gt;typings -->
<g id="edge1" class="edge"><title>src:ts&#45;&gt;typings</title>
<path fill="none" stroke="black" d="M88.5,-231C125.611,-231 134.969,-228.564 172,-231 214.715,-233.81 263.196,-240.632 296.782,-245.941"/>
<polygon fill="black" stroke="black" points="296.276,-249.404 306.704,-247.534 297.385,-242.493 296.276,-249.404"/>
<text text-anchor="middle" x="156.5" y="-233.8" font-family="Arial" font-size="9.00">tsc</text>
</g>
<!-- api -->
<g id="node5" class="node"><title>api</title>
<polygon fill="none" stroke="black" points="312.5,-126 312.5,-162 366.5,-162 366.5,-126 312.5,-126"/>
<text text-anchor="middle" x="339.5" y="-141.5" font-family="Lucida Console" font-size="10.00">api/</text>
</g>
<!-- src&#45;&gt;api -->
<g id="edge4" class="edge"><title>src:ts&#45;&gt;api:api</title>
<path fill="none" stroke="black" d="M88.5,-231C115.156,-231 116.391,-212.245 141,-202 195.427,-179.342 261.701,-161.888 302.231,-152.284"/>
<polygon fill="black" stroke="black" points="303.262,-155.638 312.205,-149.957 301.671,-148.821 303.262,-155.638"/>
<text text-anchor="middle" x="156.5" y="-204.8" font-family="Arial" font-size="9.00">api</text>
</g>
<!-- test -->
<g id="node7" class="node"><title>test</title>
<polygon fill="none" stroke="black" points="226,-17 226,-53 453,-53 453,-17 226,-17"/>
<text text-anchor="middle" x="339.5" y="-32.5" font-family="Lucida Console" font-size="10.00">%temp%/karma&#45;typescript&#45;bundle&#45;*.js</text>
</g>
<!-- src&#45;&gt;test -->
<g id="edge5" class="edge"><title>src&#45;&gt;test:karma</title>
<path fill="none" stroke="black" d="M65.9015,-201.776C90.9035,-167.496 148.332,-95.876 216.353,-58.0903"/>
<polygon fill="black" stroke="black" points="218.374,-60.981 225.577,-53.2118 215.101,-54.7932 218.374,-60.981"/>
<text text-anchor="middle" x="156.5" y="-117.8" font-family="Arial" font-size="9.00">test</text>
</g>
<!-- bundles -->
<g id="node3" class="node"><title>bundles</title>
<polygon fill="none" stroke="black" points="610,-310 610,-348 699,-348 699,-310 610,-310"/>
<text text-anchor="middle" x="654.5" y="-336" font-family="Lucida Console" font-size="10.00">es5.bundles/</text>
<polyline fill="none" stroke="black" points="610,-329 699,-329 "/>
<text text-anchor="middle" x="654.5" y="-317" font-family="Lucida Console" font-size="10.00">es6.bundles/</text>
</g>
<!-- out&#45;&gt;bundles -->
<g id="edge6" class="edge"><title>out:es5&#45;&gt;bundles:es5</title>
<path fill="none" stroke="black" d="M367.5,-373C472.825,-373 499.48,-341.156 599.734,-339.104"/>
<polygon fill="black" stroke="black" points="600.036,-342.601 610,-339 599.965,-335.601 600.036,-342.601"/>
<text text-anchor="middle" x="531.5" y="-353.8" font-family="Arial" font-size="9.00">rollup&#45;es5&#45;*</text>
</g>
<!-- out&#45;&gt;bundles -->
<g id="edge7" class="edge"><title>out:es6&#45;&gt;bundles:es6</title>
<path fill="none" stroke="black" d="M367.5,-353C431.759,-353 443.308,-323.52 507,-315 548.86,-309.401 562.142,-317.525 599.854,-318.828"/>
<polygon fill="black" stroke="black" points="599.942,-322.33 610,-319 600.061,-315.331 599.942,-322.33"/>
<text text-anchor="middle" x="531.5" y="-317.8" font-family="Arial" font-size="9.00">rollup&#45;es6&#45;*</text>
</g>
<!-- docs -->
<g id="node6" class="node"><title>docs</title>
<polygon fill="none" stroke="black" points="619,-24.5 619,-81.5 690,-81.5 690,-24.5 619,-24.5"/>
<text text-anchor="middle" x="654.5" y="-69.5" font-family="Lucida Console" font-size="10.00">api/</text>
<polyline fill="none" stroke="black" points="619,-62.5 690,-62.5 "/>
<text text-anchor="middle" x="654.5" y="-50.5" font-family="Lucida Console" font-size="10.00">use/</text>
<polyline fill="none" stroke="black" points="619,-43.5 690,-43.5 "/>
<text text-anchor="middle" x="654.5" y="-31.5" font-family="Lucida Console" font-size="10.00">maintain/</text>
</g>
<!-- api&#45;&gt;docs -->
<g id="edge8" class="edge"><title>api:api&#45;&gt;docs:api</title>
<path fill="none" stroke="black" d="M366.88,-135.027C423.095,-116.894 550.986,-77.2054 607.501,-72.4658"/>
<polygon fill="black" stroke="black" points="607.674,-75.9616 617.5,-72 607.348,-68.9692 607.674,-75.9616"/>
<text text-anchor="middle" x="531.5" y="-95.8" font-family="Arial" font-size="9.00">api&#45;doc</text>
</g>
</g>
</svg>
