<?xml version="1.0" encoding="UTF-8" standalone="no"?>
<!DOCTYPE svg PUBLIC "-//W3C//DTD SVG 1.1//EN"
 "http://www.w3.org/Graphics/SVG/1.1/DTD/svg11.dtd">
<!-- Generated by graphviz version 2.38.0 (20140413.2041)
 -->
<!-- Title: %3 Pages: 1 -->
<svg width="565pt" height="303pt"
 viewBox="0.00 0.00 565.00 303.00" xmlns="http://www.w3.org/2000/svg" xmlns:xlink="http://www.w3.org/1999/xlink">
<g id="graph0" class="graph" transform="scale(1 1) rotate(0) translate(4 299)">
<title>%3</title>
<polygon fill="white" stroke="none" points="-4,4 -4,-299 561,-299 561,4 -4,4"/>
<text text-anchor="middle" x="50.5" y="-283" font-family="Lucida Console" font-size="10.00">Build pipeline</text>
<g id="clust1" class="cluster"><title>cluster_src</title>
<polygon fill="none" stroke="gray" stroke-dasharray="5,2" points="8,-131 8,-206 95,-206 95,-131 8,-131"/>
<text text-anchor="middle" x="28.5" y="-194" font-family="Lucida Console" font-size="10.00">src/</text>
</g>
<g id="clust2" class="cluster"><title>cluster_dist</title>
<polygon fill="none" stroke="gray" stroke-dasharray="5,2" points="222,-89 222,-268 549,-268 549,-89 222,-89"/>
<text text-anchor="middle" x="245.5" y="-256" font-family="Lucida Console" font-size="10.00">dist/</text>
</g>
<g id="clust3" class="cluster"><title>cluster_tests</title>
<polygon fill="none" stroke="gray" stroke-dasharray="5,2" points="144,-8 144,-81 387,-81 387,-8 144,-8"/>
<text text-anchor="middle" x="182.5" y="-69" font-family="Lucida Console" font-size="10.00">Unit tests</text>
</g>
<!-- src -->
<g id="node1" class="node"><title>src</title>
<polygon fill="none" stroke="lightgray" points="16,-140 16,-178 87,-178 87,-140 16,-140"/>
<text text-anchor="middle" x="51.5" y="-166" font-family="Lucida Console" font-size="10.00">*.ts</text>
<polyline fill="none" stroke="lightgray" points="16,-159 87,-159 "/>
<text text-anchor="middle" x="51.5" y="-147" font-family="Lucida Console" font-size="10.00">*.spec.ts</text>
</g>
<!-- out -->
<g id="node2" class="node"><title>out</title>
<polygon fill="none" stroke="lightgray" points="238.5,-202 238.5,-240 292.5,-240 292.5,-202 238.5,-202"/>
<text text-anchor="middle" x="265.5" y="-228" font-family="Lucida Console" font-size="10.00">es5/</text>
<polyline fill="none" stroke="lightgray" points="238.5,-221 292.5,-221 "/>
<text text-anchor="middle" x="265.5" y="-209" font-family="Lucida Console" font-size="10.00">es6/</text>
</g>
<!-- src&#45;&gt;out -->
<g id="edge2" class="edge"><title>src:ts&#45;&gt;out:es5</title>
<path fill="none" stroke="#8888ff" d="M88.5,-169C108.668,-169 87.4831,-199.116 103,-212 146.726,-248.306 173.82,-233.093 227.214,-231.186"/>
<polygon fill="#8888ff" stroke="#8888ff" points="227.565,-234.68 237.5,-231 227.438,-227.681 227.565,-234.68"/>
<text text-anchor="middle" x="119.5" y="-233" font-family="Arial" font-size="10.00" fill="darkblue">tsc&#45;es5</text>
</g>
<!-- src&#45;&gt;out -->
<g id="edge3" class="edge"><title>src:ts&#45;&gt;out:es6</title>
<path fill="none" stroke="#8888ff" d="M88.5,-169C97.1553,-169 95.4844,-177.707 103,-182 153.092,-210.613 173.949,-211.049 227.489,-211.007"/>
<polygon fill="#8888ff" stroke="#8888ff" points="227.502,-214.507 237.5,-211 227.498,-207.507 227.502,-214.507"/>
<text text-anchor="middle" x="119.5" y="-200" font-family="Arial" font-size="10.00" fill="darkblue">tsc&#45;es6</text>
</g>
<!-- typings -->
<g id="node4" class="node"><title>typings</title>
<polygon fill="none" stroke="lightgray" points="233,-151 233,-187 298,-187 298,-151 233,-151"/>
<text text-anchor="middle" x="265.5" y="-166.5" font-family="Lucida Console" font-size="10.00">typings/</text>
</g>
<!-- src&#45;&gt;typings -->
<g id="edge1" class="edge"><title>src:ts&#45;&gt;typings</title>
<path fill="none" stroke="#8888ff" d="M88.5,-169C134.387,-169 187.004,-169 222.663,-169"/>
<polygon fill="#8888ff" stroke="#8888ff" points="222.705,-172.5 232.705,-169 222.705,-165.5 222.705,-172.5"/>
<text text-anchor="middle" x="119.5" y="-172" font-family="Arial" font-size="10.00" fill="darkblue">tsc</text>
</g>
<!-- api -->
<g id="node5" class="node"><title>api</title>
<polygon fill="none" stroke="lightgray" points="230,-98 230,-136 301,-136 301,-98 230,-98"/>
<text text-anchor="middle" x="265.5" y="-124" font-family="Lucida Console" font-size="10.00">api/</text>
<polyline fill="none" stroke="lightgray" points="230,-117 301,-117 "/>
<text text-anchor="middle" x="265.5" y="-105" font-family="Lucida Console" font-size="10.00">api/docs/</text>
</g>
<!-- src&#45;&gt;api -->
<g id="edge4" class="edge"><title>src:ts&#45;&gt;api:api</title>
<path fill="none" stroke="#8888ff" d="M88.5,-169C97.4581,-169 95.2542,-159.5 103,-155 123.215,-143.256 192.25,-132.025 218.404,-128.297"/>
<polygon fill="#8888ff" stroke="#8888ff" points="219.028,-131.746 228.5,-127 218.135,-124.803 219.028,-131.746"/>
<text text-anchor="middle" x="119.5" y="-158" font-family="Arial" font-size="10.00" fill="darkblue">api</text>
</g>
<!-- test -->
<g id="node6" class="node"><title>test</title>
<polygon fill="none" stroke="lightgray" points="152,-17 152,-53 379,-53 379,-17 152,-17"/>
<text text-anchor="middle" x="265.5" y="-32.5" font-family="Lucida Console" font-size="10.00">%temp%/karma&#45;typescript&#45;bundle&#45;*.js</text>
</g>
<!-- src&#45;&gt;test -->
<g id="edge5" class="edge"><title>src&#45;&gt;test:karma</title>
<path fill="none" stroke="#8888ff" d="M64.6408,-139.668C79.8205,-117.144 108.061,-80.2409 142.626,-58.4409"/>
<polygon fill="#8888ff" stroke="#8888ff" points="144.668,-61.3015 151.546,-53.2419 141.143,-55.2538 144.668,-61.3015"/>
<text text-anchor="middle" x="119.5" y="-95" font-family="Arial" font-size="10.00" fill="darkblue">test</text>
</g>
<!-- bundles -->
<g id="node3" class="node"><title>bundles</title>
<polygon fill="none" stroke="lightgray" points="452,-196 452,-234 541,-234 541,-196 452,-196"/>
<text text-anchor="middle" x="496.5" y="-222" font-family="Lucida Console" font-size="10.00">es5.bundles/</text>
<polyline fill="none" stroke="lightgray" points="452,-215 541,-215 "/>
<text text-anchor="middle" x="496.5" y="-203" font-family="Lucida Console" font-size="10.00">es6.bundles/</text>
</g>
<!-- out&#45;&gt;bundles -->
<g id="edge6" class="edge"><title>out:es5&#45;&gt;bundles:es5</title>
<path fill="none" stroke="#8888ff" d="M293.5,-231C360.415,-231 379.59,-225.594 441.657,-225.045"/>
<polygon fill="#8888ff" stroke="#8888ff" points="442.015,-228.543 452,-225 441.985,-221.543 442.015,-228.543"/>
<text text-anchor="middle" x="419.5" y="-229" font-family="Arial" font-size="10.00" fill="darkblue">rollup&#45;es5&#45;*</text>
</g>
<!-- out&#45;&gt;bundles -->
<g id="edge7" class="edge"><title>out:es6&#45;&gt;bundles:es6</title>
<path fill="none" stroke="#8888ff" d="M293.5,-211C360.415,-211 379.59,-205.594 441.657,-205.045"/>
<polygon fill="#8888ff" stroke="#8888ff" points="442.015,-208.543 452,-205 441.985,-201.543 442.015,-208.543"/>
<text text-anchor="middle" x="419.5" y="-209" font-family="Arial" font-size="10.00" fill="darkblue">rollup&#45;es6&#45;*</text>
</g>
<!-- api&#45;&gt;api -->
<g id="edge8" class="edge"><title>api:api:e&#45;&gt;api:docs:e</title>
<path fill="none" stroke="#8888ff" d="M301.5,-127C325.333,-134 374,-134 374,-117 374,-102.125 336.74,-100.266 311.458,-104.723"/>
<polygon fill="#8888ff" stroke="#8888ff" points="310.468,-101.359 301.5,-107 312.029,-108.182 310.468,-101.359"/>
<text text-anchor="middle" x="390" y="-114.5" font-family="Arial" font-size="10.00" fill="darkblue">api&#45;doc</text>
</g>
</g>
</svg>
